<svg width="200" height="75" viewBox="0 0 200 75" fill="none" xmlns="http://www.w3.org/2000/svg">
<g clip-path="url(#clip0_1_844)">
<path d="M24.745 11.1094C25.7077 11.1161 26.6698 11.1228 27.5883 11.1228H36.9331C37.8514 11.1228 38.8136 11.1161 39.7762 11.1094C42.3679 11.0914 44.9634 11.0733 46.7201 11.1858C53.115 11.5953 57.5253 15.4701 58.0923 22.054C58.2268 24.4199 58.2235 27.2699 58.2198 30.6311C58.219 31.2079 58.2184 31.8009 58.2184 32.408V41.7528C58.2184 42.36 58.219 42.9519 58.2198 43.5288C58.2235 46.8904 58.2268 49.7409 58.0923 52.1069C57.5253 58.6908 53.115 62.5657 46.7201 62.9751C44.9634 63.0877 42.3679 63.0696 39.7762 63.0516C38.8136 63.0448 37.8514 63.0381 36.9331 63.0381H27.5883C26.6698 63.0381 25.7077 63.0448 24.745 63.0516C22.1535 63.0696 19.558 63.0877 17.8013 62.9751C11.4064 62.5657 6.99608 58.6908 6.42904 52.1069C6.29459 49.741 6.29785 46.8909 6.30168 43.5298C6.30234 42.953 6.30301 42.36 6.30301 41.7528V32.408C6.30301 31.8009 6.30234 31.2089 6.30168 30.6321C6.29785 27.2709 6.29459 24.4199 6.42904 22.054C6.99608 15.4701 11.4064 11.5953 17.8013 11.1858C19.558 11.0733 22.1535 11.0914 24.745 11.1094Z" fill="url(#paint0_linear_1_844)"/>
<g filter="url(#filter0_dddddd_1_844)">
<path d="M14.7429 29.6191C14.7429 28.297 15.8148 27.225 17.1371 27.225H33.8962C37.2366 27.225 39.9445 29.933 39.9445 33.2735V44.4252C39.9445 45.7474 38.8727 46.8192 37.5504 46.8192H20.7913C17.4509 46.8192 14.7429 44.1113 14.7429 40.7709V29.6191Z" fill="url(#paint1_linear_1_844)"/>
<path d="M17.1371 27.5086H33.8962C37.08 27.5086 39.661 30.0896 39.661 33.2735V44.4252C39.661 45.5908 38.7161 46.5357 37.5504 46.5357H20.7913C17.6074 46.5357 15.0264 43.9547 15.0264 40.771V29.6191C15.0264 28.4535 15.9714 27.5086 17.1371 27.5086Z" stroke="url(#paint2_linear_1_844)" stroke-width="0.567037"/>
</g>
<g filter="url(#filter1_dddddd_1_844)">
<path d="M41.4566 34.1623C41.4566 33.3473 41.8073 32.5717 42.4191 32.0335L47.2206 27.8096C48.2382 26.9145 49.8361 27.637 49.8361 28.9922V45.1001C49.8361 46.4426 48.2643 47.1697 47.2413 46.3005L42.8336 42.5557C41.9601 41.8136 41.4566 40.7252 41.4566 39.5789V34.1623Z" fill="url(#paint3_linear_1_844)"/>
<path d="M42.6064 32.2464L47.4079 28.0225C48.2424 27.2884 49.5526 27.8809 49.5526 28.9922V45.1001C49.5526 46.201 48.2636 46.7972 47.4248 46.0844L43.0172 42.3396C42.207 41.6513 41.7401 40.6419 41.7401 39.5789V34.1623C41.7401 33.4288 42.0557 32.7308 42.6064 32.2464Z" stroke="url(#paint4_linear_1_844)" stroke-width="0.567037"/>
</g>
<path d="M89.8437 32.5625C89.7083 32.0104 89.4948 31.526 89.2031 31.1094C88.9115 30.6823 88.5469 30.3229 88.1094 30.0313C87.6823 29.7292 87.1823 29.5052 86.6094 29.3594C86.0469 29.2031 85.4271 29.125 84.75 29.125C83.2917 29.125 82.0469 29.474 81.0156 30.1719C79.9948 30.8698 79.2135 31.875 78.6719 33.1875C78.1406 34.5 77.875 36.0833 77.875 37.9375C77.875 39.8125 78.1302 41.4167 78.6406 42.75C79.151 44.0833 79.9115 45.1042 80.9219 45.8125C81.9323 46.5208 83.1875 46.875 84.6875 46.875C86.0104 46.875 87.1094 46.6823 87.9844 46.2969C88.8698 45.9115 89.5313 45.3646 89.9688 44.6562C90.4063 43.9479 90.625 43.1146 90.625 42.1562L92.125 42.3125H84.8125V36.125H99V40.5625C99 43.4792 98.3802 45.974 97.1406 48.0469C95.9115 50.1094 94.2135 51.6927 92.0469 52.7969C89.8906 53.8906 87.4167 54.4375 84.625 54.4375C81.5104 54.4375 78.776 53.776 76.4219 52.4531C74.0677 51.1302 72.2292 49.2448 70.9063 46.7969C69.5938 44.349 68.9375 41.4375 68.9375 38.0625C68.9375 35.4167 69.3385 33.0729 70.1406 31.0312C70.9531 28.9896 72.0781 27.2656 73.5156 25.8594C74.9531 24.4427 76.6146 23.375 78.5 22.6562C80.3854 21.9271 82.4063 21.5625 84.5625 21.5625C86.4583 21.5625 88.2188 21.8333 89.8437 22.375C91.4792 22.9062 92.9219 23.6667 94.1719 24.6562C95.4323 25.6354 96.4479 26.7969 97.2188 28.1406C97.9896 29.4844 98.4583 30.9583 98.625 32.5625H89.8437ZM134.051 38C134.051 41.5625 133.358 44.5677 131.973 47.0156C130.587 49.4531 128.717 51.3021 126.363 52.5625C124.009 53.8125 121.384 54.4375 118.488 54.4375C115.572 54.4375 112.936 53.8073 110.582 52.5469C108.238 51.276 106.374 49.4219 104.988 46.9844C103.613 44.5365 102.926 41.5417 102.926 38C102.926 34.4375 103.613 31.4375 104.988 29C106.374 26.5521 108.238 24.7031 110.582 23.4531C112.936 22.1927 115.572 21.5625 118.488 21.5625C121.384 21.5625 124.009 22.1927 126.363 23.4531C128.717 24.7031 130.587 26.5521 131.973 29C133.358 31.4375 134.051 34.4375 134.051 38ZM125.113 38C125.113 36.0833 124.858 34.4687 124.348 33.1562C123.848 31.8333 123.103 30.8333 122.113 30.1562C121.134 29.4687 119.926 29.125 118.488 29.125C117.051 29.125 115.837 29.4687 114.848 30.1562C113.868 30.8333 113.124 31.8333 112.613 33.1562C112.113 34.4687 111.863 36.0833 111.863 38C111.863 39.9167 112.113 41.5365 112.613 42.8594C113.124 44.1719 113.868 45.1719 114.848 45.8594C115.837 46.5365 117.051 46.875 118.488 46.875C119.926 46.875 121.134 46.5365 122.113 45.8594C123.103 45.1719 123.848 44.1719 124.348 42.8594C124.858 41.5365 125.113 39.9167 125.113 38ZM169.07 38C169.07 41.5625 168.378 44.5677 166.992 47.0156C165.607 49.4531 163.737 51.3021 161.383 52.5625C159.029 53.8125 156.404 54.4375 153.508 54.4375C150.591 54.4375 147.956 53.8073 145.602 52.5469C143.258 51.276 141.393 49.4219 140.008 46.9844C138.633 44.5365 137.945 41.5417 137.945 38C137.945 34.4375 138.633 31.4375 140.008 29C141.393 26.5521 143.258 24.7031 145.602 23.4531C147.956 22.1927 150.591 21.5625 153.508 21.5625C156.404 21.5625 159.029 22.1927 161.383 23.4531C163.737 24.7031 165.607 26.5521 166.992 29C168.378 31.4375 169.07 34.4375 169.07 38ZM160.133 38C160.133 36.0833 159.878 34.4687 159.367 33.1562C158.867 31.8333 158.122 30.8333 157.133 30.1562C156.154 29.4687 154.945 29.125 153.508 29.125C152.07 29.125 150.857 29.4687 149.867 30.1562C148.888 30.8333 148.143 31.8333 147.633 33.1562C147.133 34.4687 146.883 36.0833 146.883 38C146.883 39.9167 147.133 41.5365 147.633 42.8594C148.143 44.1719 148.888 45.1719 149.867 45.8594C150.857 46.5365 152.07 46.875 153.508 46.875C154.945 46.875 156.154 46.5365 157.133 45.8594C158.122 45.1719 158.867 44.1719 159.367 42.8594C159.878 41.5365 160.133 39.9167 160.133 38ZM200.777 22V54H193.527L181.965 37.1875H181.777V54H173.09V22H180.465L191.84 38.75H192.09V22H200.777Z" fill="white"/>
</g>
<defs>
<filter id="filter0_dddddd_1_844" x="10.2066" y="25.5239" width="34.2742" height="28.6668" filterUnits="userSpaceOnUse" color-interpolation-filters="sRGB">
<feFlood flood-opacity="0" result="BackgroundImageFix"/>
<feColorMatrix in="SourceAlpha" type="matrix" values="0 0 0 0 0 0 0 0 0 0 0 0 0 0 0 0 0 0 127 0" result="hardAlpha"/>
<feOffset dy="0.155601"/>
<feGaussianBlur stdDeviation="0.057319"/>
<feColorMatrix type="matrix" values="0 0 0 0 0.0509804 0 0 0 0 0.121569 0 0 0 0 0.396078 0 0 0 0.189957 0"/>
<feBlend mode="multiply" in2="BackgroundImageFix" result="effect1_dropShadow_1_844"/>
<feColorMatrix in="SourceAlpha" type="matrix" values="0 0 0 0 0 0 0 0 0 0 0 0 0 0 0 0 0 0 127 0" result="hardAlpha"/>
<feOffset dy="0.305287"/>
<feGaussianBlur stdDeviation="0.127482"/>
<feColorMatrix type="matrix" values="0 0 0 0 0.0509804 0 0 0 0 0.121569 0 0 0 0 0.396078 0 0 0 0.368551 0"/>
<feBlend mode="multiply" in2="effect1_dropShadow_1_844" result="effect2_dropShadow_1_844"/>
<feColorMatrix in="SourceAlpha" type="matrix" values="0 0 0 0 0 0 0 0 0 0 0 0 0 0 0 0 0 0 127 0" result="hardAlpha"/>
<feOffset dy="0.469499"/>
<feGaussianBlur stdDeviation="0.21833"/>
<feColorMatrix type="matrix" values="0 0 0 0 0.0509804 0 0 0 0 0.121569 0 0 0 0 0.396078 0 0 0 0.3 0"/>
<feBlend mode="multiply" in2="effect2_dropShadow_1_844" result="effect3_dropShadow_1_844"/>
<feColorMatrix in="SourceAlpha" type="matrix" values="0 0 0 0 0 0 0 0 0 0 0 0 0 0 0 0 0 0 127 0" result="hardAlpha"/>
<feOffset dy="0.688904"/>
<feGaussianBlur stdDeviation="0.69336"/>
<feColorMatrix type="matrix" values="0 0 0 0 0.0509804 0 0 0 0 0.121569 0 0 0 0 0.396078 0 0 0 0.3 0"/>
<feBlend mode="multiply" in2="effect3_dropShadow_1_844" result="effect4_dropShadow_1_844"/>
<feColorMatrix in="SourceAlpha" type="matrix" values="0 0 0 0 0 0 0 0 0 0 0 0 0 0 0 0 0 0 127 0" result="hardAlpha"/>
<feOffset dy="1.07196"/>
<feGaussianBlur stdDeviation="1.28906"/>
<feColorMatrix type="matrix" values="0 0 0 0 0.0509804 0 0 0 0 0.121569 0 0 0 0 0.396078 0 0 0 0.29 0"/>
<feBlend mode="overlay" in2="effect4_dropShadow_1_844" result="effect5_dropShadow_1_844"/>
<feColorMatrix in="SourceAlpha" type="matrix" values="0 0 0 0 0 0 0 0 0 0 0 0 0 0 0 0 0 0 127 0" result="hardAlpha"/>
<feOffset dy="2.83518"/>
<feGaussianBlur stdDeviation="2.26815"/>
<feColorMatrix type="matrix" values="0 0 0 0 0.0509804 0 0 0 0 0.121569 0 0 0 0 0.396078 0 0 0 0.45 0"/>
<feBlend mode="multiply" in2="effect5_dropShadow_1_844" result="effect6_dropShadow_1_844"/>
<feBlend mode="normal" in="SourceGraphic" in2="effect6_dropShadow_1_844" result="shape"/>
</filter>
<filter id="filter1_dddddd_1_844" x="36.9203" y="25.7129" width="17.4521" height="28.3369" filterUnits="userSpaceOnUse" color-interpolation-filters="sRGB">
<feFlood flood-opacity="0" result="BackgroundImageFix"/>
<feColorMatrix in="SourceAlpha" type="matrix" values="0 0 0 0 0 0 0 0 0 0 0 0 0 0 0 0 0 0 127 0" result="hardAlpha"/>
<feOffset dy="0.155601"/>
<feGaussianBlur stdDeviation="0.057319"/>
<feColorMatrix type="matrix" values="0 0 0 0 0.0509804 0 0 0 0 0.121569 0 0 0 0 0.396078 0 0 0 0.189957 0"/>
<feBlend mode="multiply" in2="BackgroundImageFix" result="effect1_dropShadow_1_844"/>
<feColorMatrix in="SourceAlpha" type="matrix" values="0 0 0 0 0 0 0 0 0 0 0 0 0 0 0 0 0 0 127 0" result="hardAlpha"/>
<feOffset dy="0.305287"/>
<feGaussianBlur stdDeviation="0.127482"/>
<feColorMatrix type="matrix" values="0 0 0 0 0.0509804 0 0 0 0 0.121569 0 0 0 0 0.396078 0 0 0 0.368551 0"/>
<feBlend mode="multiply" in2="effect1_dropShadow_1_844" result="effect2_dropShadow_1_844"/>
<feColorMatrix in="SourceAlpha" type="matrix" values="0 0 0 0 0 0 0 0 0 0 0 0 0 0 0 0 0 0 127 0" result="hardAlpha"/>
<feOffset dy="0.469499"/>
<feGaussianBlur stdDeviation="0.21833"/>
<feColorMatrix type="matrix" values="0 0 0 0 0.0509804 0 0 0 0 0.121569 0 0 0 0 0.396078 0 0 0 0.3 0"/>
<feBlend mode="multiply" in2="effect2_dropShadow_1_844" result="effect3_dropShadow_1_844"/>
<feColorMatrix in="SourceAlpha" type="matrix" values="0 0 0 0 0 0 0 0 0 0 0 0 0 0 0 0 0 0 127 0" result="hardAlpha"/>
<feOffset dy="0.688904"/>
<feGaussianBlur stdDeviation="0.69336"/>
<feColorMatrix type="matrix" values="0 0 0 0 0.0509804 0 0 0 0 0.121569 0 0 0 0 0.396078 0 0 0 0.3 0"/>
<feBlend mode="multiply" in2="effect3_dropShadow_1_844" result="effect4_dropShadow_1_844"/>
<feColorMatrix in="SourceAlpha" type="matrix" values="0 0 0 0 0 0 0 0 0 0 0 0 0 0 0 0 0 0 127 0" result="hardAlpha"/>
<feOffset dy="1.07196"/>
<feGaussianBlur stdDeviation="1.28906"/>
<feColorMatrix type="matrix" values="0 0 0 0 0.0509804 0 0 0 0 0.121569 0 0 0 0 0.396078 0 0 0 0.29 0"/>
<feBlend mode="overlay" in2="effect4_dropShadow_1_844" result="effect5_dropShadow_1_844"/>
<feColorMatrix in="SourceAlpha" type="matrix" values="0 0 0 0 0 0 0 0 0 0 0 0 0 0 0 0 0 0 127 0" result="hardAlpha"/>
<feOffset dy="2.83518"/>
<feGaussianBlur stdDeviation="2.26815"/>
<feColorMatrix type="matrix" values="0 0 0 0 0.0509804 0 0 0 0 0.121569 0 0 0 0 0.396078 0 0 0 0.45 0"/>
<feBlend mode="multiply" in2="effect5_dropShadow_1_844" result="effect6_dropShadow_1_844"/>
<feBlend mode="normal" in="SourceGraphic" in2="effect6_dropShadow_1_844" result="shape"/>
</filter>
<linearGradient id="paint0_linear_1_844" x1="32.2606" y1="11.096" x2="32.2606" y2="63.0649" gradientUnits="userSpaceOnUse">
<stop stop-color="#A4C1FF"/>
<stop offset="1" stop-color="#0E78F9"/>
</linearGradient>
<linearGradient id="paint1_linear_1_844" x1="27.3438" y1="27.225" x2="27.3438" y2="46.8192" gradientUnits="userSpaceOnUse">
<stop stop-color="white"/>
<stop offset="1" stop-color="#C5D4F7"/>
</linearGradient>
<linearGradient id="paint2_linear_1_844" x1="27.3438" y1="27.225" x2="27.3438" y2="46.8193" gradientUnits="userSpaceOnUse">
<stop stop-color="white"/>
<stop offset="1" stop-color="#637ACA"/>
</linearGradient>
<linearGradient id="paint3_linear_1_844" x1="45.6464" y1="27.4141" x2="45.6464" y2="46.6782" gradientUnits="userSpaceOnUse">
<stop stop-color="white"/>
<stop offset="1" stop-color="#C5D4F7"/>
</linearGradient>
<linearGradient id="paint4_linear_1_844" x1="45.6464" y1="27.4141" x2="45.6464" y2="46.6782" gradientUnits="userSpaceOnUse">
<stop stop-color="white"/>
<stop offset="1" stop-color="#637ACA"/>
</linearGradient>
<clipPath id="clip0_1_844">
<rect width="200" height="75" fill="white"/>
</clipPath>
</defs>
</svg>
